<svg xmlns="http://www.w3.org/2000/svg" xmlns:xlink="http://www.w3.org/1999/xlink" viewBox="0 0 209.61 84.95"><defs><style>.cls-1{fill:url(#linear-gradient);}.cls-2{fill:#231f20;}.cls-3{fill:url(#linear-gradient-2);}.cls-4{fill:#fff;}</style><linearGradient id="linear-gradient" x1="96.68" y1="42.33" x2="116.98" y2="80.77" gradientUnits="userSpaceOnUse"><stop offset="0" stop-color="#5c9ed5"/><stop offset="0.36" stop-color="#5b89c7"/><stop offset="1" stop-color="#585ca9"/></linearGradient><linearGradient id="linear-gradient-2" x1="0" y1="20.3" x2="209.61" y2="20.3" xlink:href="#linear-gradient"/></defs><g id="Layer_2" data-name="Layer 2"><g id="Layer_1-2" data-name="Layer 1"><path class="cls-1" d="M129.4,61.41C129.4,74.41,113,85,100,85S82.32,74.41,82.32,61.41s18.33-26.94,31.34-26.94S129.4,48.41,129.4,61.41Z"/><path class="cls-2" d="M24.05,64.25a12.29,12.29,0,0,1-3.95,6.93A11,11,0,0,1,13,73.58a10.88,10.88,0,0,1-6.18-1.87,10.68,10.68,0,0,1-3.66-4c-.23-.49-.43-1-.62-1.4a9.19,9.19,0,0,1-.43-1.74A55.24,55.24,0,0,1,1.8,57.1a55.41,55.41,0,0,1,.32-7.57,9.3,9.3,0,0,1,1-3.09,11.13,11.13,0,0,1,3.67-4A10.52,10.52,0,0,1,13,40.61a10.46,10.46,0,0,1,7.41,2.78,12.33,12.33,0,0,1,3.62,6.82H19a7.16,7.16,0,0,0-2.11-3.34A6.11,6.11,0,0,0,13,45.51a6.45,6.45,0,0,0-2.89.69,5.92,5.92,0,0,0-2,1.67A5.45,5.45,0,0,0,6.9,50.56a40,40,0,0,0-.35,6.54,39,39,0,0,0,.35,6.48,5.47,5.47,0,0,0,1.23,2.74,5.6,5.6,0,0,0,2,1.63,5.47,5.47,0,0,0,2.89.73c2.68,0,4.68-1.47,6-4.43Z"/><path class="cls-2" d="M39.54,71.26h-.09A3.73,3.73,0,0,1,37.51,73a9,9,0,0,1-3.57.58,8,8,0,0,1-5.77-2,6.48,6.48,0,0,1-2.13-5,6.68,6.68,0,0,1,1.85-4.83,7.26,7.26,0,0,1,5.43-2h6.22V57.26q0-3.06-4.59-3a7.86,7.86,0,0,0-2.65.36,3.24,3.24,0,0,0-1.59,1.43L27.17,53.3c1.71-2.3,4.23-3.43,7.56-3.37a11.68,11.68,0,0,1,6.74,1.65c1.67,1.16,2.53,3.14,2.56,6V73.31H39.54Zm0-7.74h-5.4q-3.93.09-3.88,2.78a2.52,2.52,0,0,0,1,2,4.67,4.67,0,0,0,3.22.91,7.68,7.68,0,0,0,4-.69c.71-.49,1.06-1.6,1.06-3.34Z"/><path class="cls-2" d="M50.57,50.22h4.49v2.45h.09a7.35,7.35,0,0,1,10.52-1l-3.28,4a4.59,4.59,0,0,0-3-1.16,4.14,4.14,0,0,0-3,1.16,4.59,4.59,0,0,0-1.42,3.67V73.31H50.57Z"/><path class="cls-2" d="M69,66.26a9.23,9.23,0,0,0,7.08,3,5.85,5.85,0,0,0,3.18-.78,2.45,2.45,0,0,0,1.23-2.18,1.93,1.93,0,0,0-.73-1.73,3.73,3.73,0,0,0-2-.56l-4-.36a7.43,7.43,0,0,1-4.6-2,6.05,6.05,0,0,1-1.86-4.61,6.33,6.33,0,0,1,2.44-5.34,9.48,9.48,0,0,1,5.91-1.78,17.87,17.87,0,0,1,2.78.2,13.36,13.36,0,0,1,2.3.63,12.85,12.85,0,0,1,3.71,2.33l-2.78,3.36a13.8,13.8,0,0,0-2.74-1.6,9.07,9.07,0,0,0-3.29-.56,4.33,4.33,0,0,0-2.95.78,2.55,2.55,0,0,0-.89,2,1.57,1.57,0,0,0,.67,1.36,3.81,3.81,0,0,0,2.29.83l3.71.29c2.33.17,4,.9,5,2.18a7.5,7.5,0,0,1,1.45,4.74,6.07,6.07,0,0,1-2.65,5.19,11.23,11.23,0,0,1-6.62,1.92,14,14,0,0,1-9.85-4.14Z"/><path class="cls-2" d="M126.77,41.16h12.28a9.48,9.48,0,0,1,6.4,2.13,8.73,8.73,0,0,1,3.11,6.92q-.08,6.6-6.06,9l7.27,14.39h-5.65l-6.5-13.86h-6.09V73.58h-4.76Zm4.76,14.21h7.21a5,5,0,0,0,5.34-5.17,4.37,4.37,0,0,0-1.58-3.68,5.35,5.35,0,0,0-3.5-1h-7.47Z"/><path class="cls-2" d="M157.53,63.79A5.51,5.51,0,0,0,159.08,68a5.08,5.08,0,0,0,3.79,1.47,6.63,6.63,0,0,0,4.9-2.25L171,70.11A10.39,10.39,0,0,1,163,73.85a11.5,11.5,0,0,1-3.45-.53,9,9,0,0,1-1.63-.78,8.19,8.19,0,0,1-1.58-1.05,9.29,9.29,0,0,1-2.3-3.6,14.53,14.53,0,0,1-1-5.78,16.56,16.56,0,0,1,.84-5.7A10.08,10.08,0,0,1,156,52.76a8,8,0,0,1,3-1.95,9.3,9.3,0,0,1,3.23-.6,9.13,9.13,0,0,1,6.48,2.6A9.64,9.64,0,0,1,171.47,60v3.82ZM167,60a6,6,0,0,0-1.4-4.09,4.85,4.85,0,0,0-6.65,0,6.3,6.3,0,0,0-1.4,4.09Z"/><path class="cls-2" d="M176.93,50.5h4.49v2.44h.08a7.13,7.13,0,0,1,5.81-2.73,7.51,7.51,0,0,1,5.08,2,8,8,0,0,1,2.39,6V73.58h-4.49V59.82a5,5,0,0,0-1.25-3.7,4.17,4.17,0,0,0-3.16-1.29,4.23,4.23,0,0,0-3.19,1.29,5,5,0,0,0-1.27,3.7V73.58h-4.49Z"/><path class="cls-2" d="M201.66,43.47h4.49v7h3.27v3.55h-3.27V67.51c0,1.17.5,1.74,1.59,1.72h1.68v4.35h-2.34a5.21,5.21,0,0,1-3.87-1.51,5.4,5.4,0,0,1-1.55-4.18V54.05H199.4V50.5h2.26Z"/><path class="cls-3" d="M204.28,26.65c-2.86-4.3,0-6.44,0-6.44s.36-5.73-3.58-6.45c-19,1.79-22.9-11.09-41.15-12.88S108,.52,102.28.88,83.67,4.82,61.48,17C2.43,12.69,0,39.39,0,39.39a43.6,43.6,0,0,1,9.87-9.58c2.82.79,7.28,1.79,10.63,1.37A11.41,11.41,0,0,0,27.58,27c.5-.58,0-1.41-.88-1.31L13.85,27.29c9-5.05,19.4-7,29.38-7,20.65,0,48.31,3.13,48.31,3.13s-3.22-.72-15-3.94C70.07,17,92.25,7,101.2,4.82c7.09-1.7,29.88-1.38,43.14-1.18l3.71,14.24L146.2,3.67c2.63,0,4.78.07,6.18.07,8.23,0,24.33,5.73,19,11.81s-51.18,9.31-65.51,11.1c30.76,2.15,70.52-6.44,78-6.35s16.82,5.27,25.41,20.31C210.71,35.24,207.13,30.94,204.28,26.65Z"/><path class="cls-4" d="M95.79,70.57c-.5,0-.62-.84,0-.84,3.41-.1,2.72-.91,2.91-3.52V52.13l-8.18,9.64h7.26v2.52H88.09c-1.11,0-1.29-.54-.48-1.48l13.43-16a1.07,1.07,0,0,1,.8-.46c.59,0,.41.41,1.41.32,1.76,0,6.92-.21,9.07.47,4.34.87,8.75,4,8.92,11.16a12.15,12.15,0,0,1-4.55,9.65c-2.27,1.78-5.36,2.74-9.25,2.79-1.4,0-4.4-.2-7-.22S97.47,70.57,95.79,70.57Zm8.85-8.8a5.82,5.82,0,0,0,1.24-.32c.23,0,.39.18.29.71s-.38,1.41-.38,1.41a.87.87,0,0,1-1,.72h-2.23s-.07,3.23.55,3.75c1.15,1.08,2.83,1.08,4.91,1.08a9.5,9.5,0,0,0,6.85-2.79c1.59-1.75,2.15-4.29,2.06-7.78a10.08,10.08,0,0,0-6.11-9.34,16,16,0,0,0-7.41-1c-.57.05-.91.28-.92.77V61.77Z"/></g></g></svg>